# xmcd CD database file
#
# Track frame offsets:
#	150
#	12405
#	25169
#	37904
#	50221
#	61673
#	71958
#	85234
#	98073
#	111680
#	125251
#	137780
#	151380
#	163833
#	175248
#	187192
#	200558
#	212621
#	223346
#	235410
#
# Disc length: 3303 seconds
#
# Revision: 0
# Processed by: cddbd v1.5.1PL2 Copyright (c) Steve Scherf et al.
# Submitted via: CDex 1.50beta9
#
DISCID=310ce514
DTITLE=Various Artist - Number One Country Hits Of The 40s and 50s
DYEAR=1900
DGENRE=Country
TTITLE0=Hank Williams-Your Cheatin' Heart
TTITLE1=Hank Snow-I'm Moving On
TTITLE2=Jim Reeves-Bimbo
TTITLE3=Hank Thompson-The Wild Side Of Life
TTITLE4=Kitty Wells-It Wasn't God Who Made Honky Tonk Angels
TTITLE5=Bob Wills And His Texas Playboys-Sugar Moon
TTITLE6=George Morgan-Candy Kisses
TTITLE7=Slim Willet (with the Brush Cutters)-Don't Let The Stars Get In Your Eyes
TTITLE8=Davis Sisters-I Forgot More Than You'll Ever Know
TTITLE9=Merle Travis-Divorce Me COD
TTITLE10=Hank Snow-The Golden Rocket
TTITLE11=Webb Pierce-Wondering
TTITLE12=Hank Williams-Lovesick Blues
TTITLE13=Jean Shepard And Ferlin Husky-A Dear John Letter
TTITLE14=Jim Reeves And The Circle O Ranch Boys-Mexican Joe
TTITLE15=Lefty Frizzell-If You've Got The Money I've Got The Time
TTITLE16=Red Foley-Tennessee Saturday Night
TTITLE17=Eddy Arnold-Eddy's Song
TTITLE18=Marty Robbins-I'll Go On Alone
TTITLE19=Leon Payne-I Love You Because
EXTD=
EXTT0=
EXTT1=
EXTT2=
EXTT3=
EXTT4=
EXTT5=
EXTT6=
EXTT7=
EXTT8=
EXTT9=
EXTT10=
EXTT11=
EXTT12=
EXTT13=
EXTT14=
EXTT15=
EXTT16=
EXTT17=
EXTT18=
EXTT19=
PLAYORDER=
